<?xml version="1.0" encoding="UTF-8" standalone="no"?>
<!-- Created with Inkscape (http://www.inkscape.org/) -->
<svg
   xmlns:dc="http://purl.org/dc/elements/1.1/"
   xmlns:cc="http://web.resource.org/cc/"
   xmlns:rdf="http://www.w3.org/1999/02/22-rdf-syntax-ns#"
   xmlns:svg="http://www.w3.org/2000/svg"
   xmlns="http://www.w3.org/2000/svg"
   xmlns:xlink="http://www.w3.org/1999/xlink"
   xmlns:sodipodi="http://inkscape.sourceforge.net/DTD/sodipodi-0.dtd"
   xmlns:inkscape="http://www.inkscape.org/namespaces/inkscape"
   width="210mm"
   height="297mm"
   id="svg2"
   sodipodi:version="0.32"
   inkscape:version="0.42.2"
   sodipodi:docbase="D:\temp\PosteRazor\webpage\images"
   sodipodi:docname="logo.svg">
  <defs
     id="defs4">
    <pattern
       inkscape:collect="always"
       xlink:href="#pattern2173"
       id="pattern2180"
       patternTransform="matrix(0.981063,-0.193683,0.193683,0.981063,149.9976,-260.0089)" />
    <pattern
       inkscape:collect="always"
       xlink:href="#pattern2146"
       id="pattern2173"
       patternTransform="matrix(0.988538,-0.150967,0.150967,0.988538,149.9981,-247.4571)" />
    <pattern
       inkscape:collect="always"
       xlink:href="#pattern2164"
       id="pattern2171"
       patternTransform="matrix(0.994264,-0.106950,0.106950,0.994264,168.3828,-235.9605)" />
    <pattern
       inkscape:collect="always"
       xlink:href="#pattern2137"
       id="pattern2146"
       patternTransform="matrix(0.994058,-0.108848,0.108848,0.994058,155.9482,-226.8187)" />
    <pattern
       patternUnits="userSpaceOnUse"
       width="400.00000"
       height="580.00000"
       patternTransform="translate(240.0000,-247.6378)"
       id="pattern1327">
      <image
         id="image1329"
         height="580.00000"
         width="400.00000"
         sodipodi:absref="monalisa_complete.png"
         xlink:href="monalisa_complete.png"
         x="270.00000"
         y="-237.63782"
         transform="translate(-270.0000,237.6378)" />
    </pattern>
    <pattern
       patternUnits="userSpaceOnUse"
       width="400.00000"
       height="580.00000"
       patternTransform="translate(200.0000,-237.6378)"
       id="pattern2096">
      <image
         id="image2098"
         height="580.00000"
         width="400.00000"
         sodipodi:absref="monalisa.png"
         xlink:href="monalisa.png"
         x="182.84781"
         y="-76.064430"
         transform="translate(-182.8478,76.06443)" />
    </pattern>
    <pattern
       patternUnits="userSpaceOnUse"
       width="400.00000"
       height="580.00000"
       patternTransform="translate(-450.0000,-187.6378)"
       id="pattern2137">
      <image
         id="image2139"
         height="580.00000"
         width="400.00000"
         sodipodi:absref="monalisa.png"
         xlink:href="monalisa.png"
         x="-429.30463"
         y="-300.31830"
         transform="translate(429.3046,300.3183)" />
    </pattern>
    <pattern
       patternUnits="userSpaceOnUse"
       width="400.00000"
       height="580.00000"
       patternTransform="translate(-400.0000,-337.6378)"
       id="pattern2164">
      <image
         id="image2166"
         height="580.00000"
         width="400.00000"
         sodipodi:absref="monalisa.png"
         xlink:href="monalisa.png"
         x="-400.00000"
         y="-337.63782"
         transform="translate(400.0000,337.6378)" />
    </pattern>
  </defs>
  <sodipodi:namedview
     id="base"
     pagecolor="#ffffff"
     bordercolor="#666666"
     borderopacity="1.0"
     inkscape:pageopacity="0.0"
     inkscape:pageshadow="2"
     inkscape:zoom="0.70000000"
     inkscape:cx="-1.0141246"
     inkscape:cy="1254.1543"
     inkscape:document-units="px"
     inkscape:current-layer="layer1"
     showgrid="true"
     showguides="true"
     inkscape:guide-bbox="true"
     inkscape:window-width="1280"
     inkscape:window-height="998"
     inkscape:window-x="-4"
     inkscape:window-y="-4"
     inkscape:grid-points="false"
     gridspacingx="10.000000px"
     gridspacingy="10.000000px"
     gridtolerance="10.000000px" />
  <metadata
     id="metadata7">
    <rdf:RDF>
      <cc:Work
         rdf:about="">
        <dc:format>image/svg+xml</dc:format>
        <dc:type
           rdf:resource="http://purl.org/dc/dcmitype/StillImage" />
      </cc:Work>
    </rdf:RDF>
  </metadata>
  <g
     inkscape:label="Ebene 1"
     inkscape:groupmode="layer"
     id="layer1">
    <rect
       style="fill:#ffffee;fill-opacity:1.0000000;fill-rule:nonzero;stroke:#000000;stroke-linejoin:miter;stroke-opacity:1.0000000"
       id="rect7700"
       width="150.00000"
       height="140.00000"
       x="0.00000000"
       y="-7.6378174"
       inkscape:export-filename="logo.png"
       inkscape:export-xdpi="61.000000"
       inkscape:export-ydpi="61.000000" />
    <path
       style="fill:#b2b2b2;fill-opacity:1.0000000;fill-rule:evenodd;stroke:#000000;stroke-width:1.0000000px;stroke-linecap:butt;stroke-linejoin:miter;stroke-opacity:1.0000000;marker-start:none;opacity:1.0000000"
       d="M 50.000000 12.375000 C 50.089286 22.375000 60.000000 22.362183 44.000000 22.375000 C 44.000000 22.375000 44.000000 42.375000 44.000000 42.375000 C 60.000000 42.362183 50.000000 42.362183 50.000000 52.375000 C 50.000000 52.375000 100.00000 52.375000 100.00000 52.375000 C 99.821429 42.553571 90.000000 42.362183 106.00000 42.375000 L 106.00000 22.375000 C 90.000000 22.362183 100.08929 22.375000 100.00000 12.375000 L 50.000000 12.375000 z M 50.000000 26.750000 C 49.936205 26.883888 50.021248 30.500000 53.593750 30.500000 C 57.166254 30.500000 57.146250 26.749997 60.718750 26.750000 C 64.291254 26.750001 64.302497 30.500000 67.875000 30.500000 C 71.447503 30.500000 71.427498 26.749997 75.000000 26.750000 C 78.572502 26.750001 78.583748 30.500000 82.156250 30.500000 C 85.728757 30.500000 85.708742 26.749997 89.281250 26.750000 C 92.853750 26.750001 92.864993 30.500000 96.437500 30.500000 C 100.01000 30.500000 100.00000 26.749997 100.00000 26.750000 L 100.00000 38.000000 C 99.999996 38.000001 100.00999 34.250000 96.437500 34.250000 C 92.864996 34.250001 92.853748 38.000000 89.281250 38.000000 C 85.708745 38.000001 85.728755 34.250000 82.156250 34.250000 C 78.583750 34.250001 78.572505 38.000000 75.000000 38.000000 C 71.427495 38.000001 71.447504 34.250000 67.875000 34.250000 C 64.302496 34.250001 64.291257 38.000000 60.718750 38.000000 C 57.146247 38.000001 57.166255 34.250000 53.593750 34.250000 C 50.021247 34.250001 49.999999 38.000000 50.000000 38.000000 C 50.000000 38.000001 49.999999 37.996594 50.000000 26.750000 z "
       id="path6107"
       inkscape:export-filename="logo.png"
       inkscape:export-xdpi="61.000000"
       inkscape:export-ydpi="61.000000" />
    <g
       id="g1334">
      <rect
         inkscape:export-ydpi="61.000000"
         inkscape:export-xdpi="61.000000"
         inkscape:export-filename="logo.png"
         y="-26.435684"
         x="159.89735"
         height="228.79787"
         width="200.10265"
         id="rect2912"
         style="fill:#ffffee;fill-opacity:1.0000000;fill-rule:nonzero;stroke:#000000;stroke-width:0.00000000;stroke-linejoin:miter;stroke-miterlimit:4.0000000;stroke-dasharray:none;stroke-opacity:1.0000000" />
      <g
         transform="translate(0.000000,-4.542845)"
         inkscape:export-ydpi="57.857143"
         inkscape:export-xdpi="57.857143"
         inkscape:export-filename="logo.png"
         id="g2914">
        <g
           id="g2175"
           transform="matrix(0.258080,0.000000,0.000000,0.258080,151.2880,84.00204)">
          <path
             id="rect2100"
             d="M 400.00000,-237.62500 L 400.00000,52.375000 L 200.00000,52.375000 C 200.00000,342.37500 200.00000,342.37500 200.00000,342.37500 L 600.00000,342.37500 L 600.00000,-237.62500 L 400.00000,-237.62500 z "
             style="fill:url(#pattern2096);stroke:none" />
          <path
             sodipodi:nodetypes="ccccc"
             id="rect2141"
             d="M 150.00000,-259.99629 L 180.54053,-111.96219 L 376.75334,-150.69891 L 346.21281,-298.73300 L 150.00000,-259.99629 z "
             style="fill:url(#pattern2180);stroke:none" />
          <path
             sodipodi:nodetypes="ccccc"
             id="rect2168"
             d="M 184.33567,-90.879614 L 199.39961,52.388890 L 398.25249,30.998922 L 383.18856,-112.26958 L 184.33567,-90.879614 z "
             style="fill:url(#pattern2171);stroke:none" />
        </g>
        <path
           style="opacity:1.0000000;fill:#b2b2b2;fill-opacity:1.0000000;fill-rule:evenodd;stroke:#000000;stroke-width:1.0000000px;stroke-linecap:butt;stroke-linejoin:miter;marker-start:none;stroke-opacity:1.0000000"
           d="M 313.03855,115.23539 C 303.62545,118.61199 306.90044,127.96596 301.62068,112.86218 C 301.62068,112.86218 282.73568,119.44676 282.73568,119.44676 C 288.01543,134.55054 284.72315,125.10804 275.26855,128.40454 C 275.26855,128.40454 291.72999,175.61705 291.72999,175.61705 C 300.94509,172.21494 297.89230,162.87805 303.14787,177.99027 L 322.03287,171.40569 C 316.77730,156.29347 320.08689,165.82450 329.50000,162.44790 L 313.03855,115.23539 z M 299.46496,119.96806 C 299.31753,119.95189 295.93102,121.22273 297.10719,124.59606 C 298.28336,127.96940 301.81771,126.71590 302.99388,130.08924 C 304.17005,133.46257 300.63282,134.70780 301.80899,138.08114 C 302.98516,141.45447 306.51951,140.20098 307.69568,143.57431 C 308.87185,146.94764 305.33462,148.19287 306.51079,151.56621 C 307.68696,154.93955 311.22131,153.68604 312.39748,157.05938 C 313.57365,160.43272 310.03641,161.67794 311.21259,165.05128 C 312.38876,168.42461 315.92640,167.18056 315.92640,167.18056 L 305.30359,170.88439 C 305.30359,170.88439 308.84781,169.65921 307.67165,166.28589 C 306.49548,162.91256 302.95084,164.13654 301.77467,160.76321 C 300.59849,157.38987 304.14602,156.17415 302.96985,152.80082 C 301.79368,149.42748 298.24904,150.65147 297.07287,147.27813 C 295.89670,143.90480 299.44422,142.68908 298.26805,139.31574 C 297.09188,135.94241 293.54724,137.16640 292.37107,133.79306 C 291.19490,130.41973 294.74242,129.20400 293.56625,125.83067 C 292.39008,122.45734 288.84214,123.67188 288.84214,123.67188 C 288.84214,123.67188 288.84535,123.67076 299.46496,119.96806 z "
           id="path2910"
           inkscape:export-filename="logo.png"
           inkscape:export-xdpi="61.000000"
           inkscape:export-ydpi="61.000000" />
      </g>
    </g>
    <use
       inkscape:export-filename="D:\temp\PosteRazor\source\posterazor\ui\OSXResources\icon_128_image.png"
       inkscape:export-ydpi="61.070000"
       inkscape:export-xdpi="61.070000"
       height="1052.3622"
       width="744.09448"
       transform="translate(230.0000,18.41476)"
       id="use1325"
       xlink:href="#g2914"
       y="0.00000000"
       x="0.00000000" />
  </g>
</svg>
