<?xml version="1.0" encoding="UTF-8" standalone="no"?>
<!-- Created with Inkscape (http://www.inkscape.org/) -->
<svg
   xmlns:dc="http://purl.org/dc/elements/1.1/"
   xmlns:cc="http://creativecommons.org/ns#"
   xmlns:rdf="http://www.w3.org/1999/02/22-rdf-syntax-ns#"
   xmlns:svg="http://www.w3.org/2000/svg"
   xmlns="http://www.w3.org/2000/svg"
   xmlns:xlink="http://www.w3.org/1999/xlink"
   xmlns:sodipodi="http://sodipodi.sourceforge.net/DTD/sodipodi-0.dtd"
   xmlns:inkscape="http://www.inkscape.org/namespaces/inkscape"
   width="655"
   height="200"
   id="svg2"
   sodipodi:version="0.32"
   inkscape:version="0.46"
   sodipodi:docbase="D:\temp\PosteRazor\webpage\images"
   sodipodi:docname="logo.svg"
   inkscape:output_extension="org.inkscape.output.svg.inkscape"
   version="1.0">
  <defs
     id="defs4">
    <pattern
       inkscape:collect="always"
       xlink:href="#pattern2096"
       id="pattern3194"
       patternTransform="matrix(0.25808,0,0,0.25808,202.904,22.672477)" />
    <pattern
       inkscape:collect="always"
       xlink:href="#pattern2180"
       id="pattern3191"
       patternTransform="matrix(0.2531927,-4.9985709e-2,4.9985709e-2,0.2531927,189.99938,16.898943)" />
    <pattern
       inkscape:collect="always"
       xlink:href="#pattern2171"
       id="pattern3188"
       patternTransform="matrix(0.2565997,-2.7601656e-2,2.7601656e-2,0.2565997,194.74423,23.105354)" />
    <inkscape:perspective
       sodipodi:type="inkscape:persp3d"
       inkscape:vp_x="0 : 526.18109 : 1"
       inkscape:vp_y="0 : 1000 : 0"
       inkscape:vp_z="744.09448 : 526.18109 : 1"
       inkscape:persp3d-origin="372.04724 : 350.78739 : 1"
       id="perspective30" />
    <pattern
       inkscape:collect="always"
       xlink:href="#pattern2173"
       id="pattern2180"
       patternTransform="matrix(0.981063,-0.193683,0.193683,0.981063,149.9976,-260.0089)" />
    <pattern
       inkscape:collect="always"
       xlink:href="#pattern2146"
       id="pattern2173"
       patternTransform="matrix(0.988538,-0.150967,0.150967,0.988538,149.9981,-247.4571)" />
    <pattern
       inkscape:collect="always"
       xlink:href="#pattern2164"
       id="pattern2171"
       patternTransform="matrix(0.994264,-0.106950,0.106950,0.994264,168.3828,-235.9605)" />
    <pattern
       inkscape:collect="always"
       xlink:href="#pattern2137"
       id="pattern2146"
       patternTransform="matrix(0.994058,-0.108848,0.108848,0.994058,155.9482,-226.8187)" />
    <pattern
       patternUnits="userSpaceOnUse"
       width="400.00000"
       height="580.00000"
       patternTransform="translate(240.0000,-247.6378)"
       id="pattern1327">
      <image
         id="image1329"
         height="580.00000"
         width="400.00000"
         sodipodi:absref="monalisa_complete.png"
         xlink:href="monalisa_complete.png"
         x="270.00000"
         y="-237.63782"
         transform="translate(-270.0000,237.6378)" />
    </pattern>
    <pattern
       patternUnits="userSpaceOnUse"
       width="400.00000"
       height="580.00000"
       patternTransform="translate(200.0000,-237.6378)"
       id="pattern2096">
      <image
         id="image2098"
         height="580.00000"
         width="400.00000"
         sodipodi:absref="monalisa.png"
         xlink:href="monalisa.png"
         x="182.84781"
         y="-76.064430"
         transform="translate(-182.8478,76.06443)" />
    </pattern>
    <pattern
       patternUnits="userSpaceOnUse"
       width="400.00000"
       height="580.00000"
       patternTransform="translate(-450.0000,-187.6378)"
       id="pattern2137">
      <image
         id="image2139"
         height="580.00000"
         width="400.00000"
         sodipodi:absref="monalisa.png"
         xlink:href="monalisa.png"
         x="-429.30463"
         y="-300.31830"
         transform="translate(429.3046,300.3183)" />
    </pattern>
    <pattern
       patternUnits="userSpaceOnUse"
       width="400.00000"
       height="580.00000"
       patternTransform="translate(-400.0000,-337.6378)"
       id="pattern2164">
      <image
         id="image2166"
         height="580.00000"
         width="400.00000"
         sodipodi:absref="monalisa.png"
         xlink:href="monalisa.png"
         x="-400.00000"
         y="-337.63782"
         transform="translate(400.0000,337.6378)" />
    </pattern>
    <filter
       inkscape:collect="always"
       id="filter4039">
      <feGaussianBlur
         inkscape:collect="always"
         stdDeviation="4.3887046"
         id="feGaussianBlur4041" />
    </filter>
    <filter
       id="filter3362"
       inkscape:collect="always">
      <feGaussianBlur
         id="feGaussianBlur3364"
         stdDeviation="0.79751716"
         inkscape:collect="always" />
    </filter>
    <linearGradient
       gradientUnits="userSpaceOnUse"
       y2="199"
       x2="0"
       y1="0"
       x1="0"
       id="linearGradient3233"
       xlink:href="#linearGradient3237"
       inkscape:collect="always"
       gradientTransform="translate(0,20)" />
    <linearGradient
       y2="26.417589"
       x2="19.060959"
       y1="11.836136"
       x1="2.205663"
       gradientUnits="userSpaceOnUse"
       id="linearGradient5225"
       xlink:href="#linearGradient5217"
       inkscape:collect="always" />
    <linearGradient
       gradientUnits="userSpaceOnUse"
       y2="27.634771"
       x2="23.798826"
       y1="8.3263264"
       x1="12.042246"
       id="linearGradient5223"
       xlink:href="#linearGradient5217"
       inkscape:collect="always" />
    <linearGradient
       id="linearGradient5217"
       inkscape:collect="always">
      <stop
         id="stop5219"
         offset="0"
         style="stop-color:#ffffff;stop-opacity:1;" />
      <stop
         id="stop5221"
         offset="1"
         style="stop-color:#ffffff;stop-opacity:0;" />
    </linearGradient>
    <linearGradient
       id="linearGradient3237">
      <stop
         style="stop-color:#cccc99;stop-opacity:1;"
         offset="0"
         id="stop3239" />
      <stop
         style="stop-color:#ffffcc;stop-opacity:1"
         offset="1"
         id="stop3241" />
    </linearGradient>
    <inkscape:perspective
       id="perspective2792"
       inkscape:persp3d-origin="327.5 : 66.666667 : 1"
       inkscape:vp_z="655 : 100 : 1"
       inkscape:vp_y="0 : 1000 : 0"
       inkscape:vp_x="0 : 100 : 1"
       sodipodi:type="inkscape:persp3d" />
  </defs>
  <sodipodi:namedview
     id="base"
     pagecolor="#ffffff"
     bordercolor="#666666"
     borderopacity="1.0"
     inkscape:pageopacity="0.0"
     inkscape:pageshadow="2"
     inkscape:zoom="1.4"
     inkscape:cx="280.32573"
     inkscape:cy="100.76473"
     inkscape:document-units="px"
     inkscape:current-layer="layer1"
     showgrid="true"
     showguides="true"
     inkscape:guide-bbox="true"
     inkscape:window-width="1024"
     inkscape:window-height="748"
     inkscape:window-x="-8"
     inkscape:window-y="-8"
     inkscape:grid-points="false"
     gridtolerance="10.000000px">
    <inkscape:grid
       id="GridFromPre046Settings"
       type="xygrid"
       originx="0px"
       originy="0px"
       spacingx="10.000000px"
       spacingy="10.000000px"
       color="#0000ff"
       empcolor="#0000ff"
       opacity="0.2"
       empopacity="0.4"
       empspacing="5"
       visible="true"
       enabled="true" />
  </sodipodi:namedview>
  <metadata
     id="metadata7">
    <rdf:RDF>
      <cc:Work
         rdf:about="">
        <dc:format>image/svg+xml</dc:format>
        <dc:type
           rdf:resource="http://purl.org/dc/dcmitype/StillImage" />
      </cc:Work>
    </rdf:RDF>
  </metadata>
  <g
     inkscape:label="Ebene 1"
     inkscape:groupmode="layer"
     id="layer1">
    <rect
       style="fill:#ffffee;fill-opacity:1;fill-rule:nonzero;stroke:#000000;stroke-linejoin:miter;stroke-opacity:1"
       id="rect7700"
       width="150"
       height="140"
       x="60.293468"
       y="-351.12766"
       inkscape:export-filename="logo.png"
       inkscape:export-xdpi="61.000000"
       inkscape:export-ydpi="61.000000" />
    <path
       style="opacity:1;fill:#b2b2b2;fill-opacity:1;fill-rule:evenodd;stroke:#000000;stroke-width:1px;stroke-linecap:butt;stroke-linejoin:miter;marker-start:none;stroke-opacity:1"
       d="M 110.29347,-331.11484 C 110.38276,-321.11484 120.29347,-321.12766 104.29347,-321.11484 C 104.29347,-321.11484 104.29347,-301.11484 104.29347,-301.11484 C 120.29347,-301.12766 110.29347,-301.12766 110.29347,-291.11484 C 110.29347,-291.11484 160.29347,-291.11484 160.29347,-291.11484 C 160.1149,-300.93627 150.29347,-301.12766 166.29347,-301.11484 L 166.29347,-321.11484 C 150.29347,-321.12766 160.38276,-321.11484 160.29347,-331.11484 L 110.29347,-331.11484 z M 110.29347,-316.73984 C 110.22967,-316.60596 110.31472,-312.98984 113.88722,-312.98984 C 117.45972,-312.98984 117.43972,-316.73985 121.01222,-316.73984 C 124.58472,-316.73984 124.59597,-312.98984 128.16847,-312.98984 C 131.74097,-312.98984 131.72097,-316.73985 135.29347,-316.73984 C 138.86597,-316.73984 138.87722,-312.98984 142.44972,-312.98984 C 146.02223,-312.98984 146.00221,-316.73985 149.57472,-316.73984 C 153.14722,-316.73984 153.15846,-312.98984 156.73097,-312.98984 C 160.30347,-312.98984 160.29347,-316.73985 160.29347,-316.73984 L 160.29347,-305.48984 C 160.29347,-305.48984 160.30346,-309.23984 156.73097,-309.23984 C 153.15847,-309.23984 153.14722,-305.48984 149.57472,-305.48984 C 146.00221,-305.48984 146.02222,-309.23984 142.44972,-309.23984 C 138.87722,-309.23984 138.86597,-305.48984 135.29347,-305.48984 C 131.72096,-305.48984 131.74097,-309.23984 128.16847,-309.23984 C 124.59597,-309.23984 124.58473,-305.48984 121.01222,-305.48984 C 117.43972,-305.48984 117.45972,-309.23984 113.88722,-309.23984 C 110.31472,-309.23984 110.29347,-305.48984 110.29347,-305.48984 C 110.29347,-305.48984 110.29347,-305.49325 110.29347,-316.73984 z"
       id="path6107"
       inkscape:export-filename="logo.png"
       inkscape:export-xdpi="61.000000"
       inkscape:export-ydpi="61.000000" />
    <g
       id="g2933">
      <rect
         inkscape:export-ydpi="31.135136"
         inkscape:export-xdpi="31.135136"
         inkscape:export-filename="C:\Users\aportale\Desktop\logo.png"
         y="-350"
         x="220.89999"
         height="185"
         width="185.10001"
         id="rect2912"
         style="fill:#ffffee;fill-opacity:1;fill-rule:nonzero;stroke:#000000;stroke-width:0;stroke-linejoin:miter;stroke-miterlimit:4;stroke-dasharray:none;stroke-opacity:1" />
      <g
         transform="translate(60.29347,-343.48984)"
         id="g2910">
        <g
           style="opacity:0.42477878;filter:url(#filter4039)"
           id="g3175"
           inkscape:export-filename="logo.png"
           inkscape:export-xdpi="57.857143"
           inkscape:export-ydpi="57.857143"
           transform="translate(-124.46853,68.57059)">
          <path
             d="M 387.07438,-42.904967 L 387.07438,31.938236 L 335.45838,31.938236 C 335.45838,106.78144 335.45838,106.78144 335.45838,106.78144 L 438.69038,106.78144 L 438.69038,-42.904967 L 387.07438,-42.904967 z M 322.55438,-48.678547 L 330.43628,-10.473907 L 381.07488,-20.471077 L 373.19298,-58.675717 L 322.55438,-48.678547 z M 331.41573,-5.0329174 L 335.30343,31.941821 L 386.62338,26.421498 L 382.73568,-10.553237 L 331.41573,-5.0329174 z M 445.59293,49.654646 C 436.17983,53.031246 439.45482,62.385216 434.17506,47.281436 C 434.17506,47.281436 415.29006,53.866016 415.29006,53.866016 C 420.56981,68.969796 417.27753,59.527296 407.82293,62.823796 C 407.82293,62.823796 424.28437,110.03631 424.28437,110.03631 C 433.49947,106.6342 430.44668,97.297306 435.70225,112.40953 L 454.58725,105.82495 C 449.33168,90.712726 452.64127,100.24376 462.05438,96.867156 L 445.59293,49.654646 z M 432.01934,54.387316 C 431.87191,54.371146 428.4854,55.641986 429.66157,59.015316 C 430.83774,62.388656 434.37209,61.135156 435.54826,64.508496 C 436.72443,67.881826 433.1872,69.127056 434.36337,72.500396 C 435.53954,75.873726 439.07389,74.620236 440.25006,77.993566 C 441.42623,81.366896 437.889,82.612126 439.06517,85.985466 C 440.24134,89.358806 443.77569,88.105296 444.95186,91.478636 C 446.12803,94.851976 442.59079,96.097196 443.76697,99.470536 C 444.94314,102.84387 448.48078,101.59982 448.48078,101.59982 L 437.85797,105.30365 C 437.85797,105.30365 441.40219,104.07847 440.22603,100.70515 C 439.04986,97.331816 435.50522,98.555796 434.32905,95.182466 C 433.15287,91.809126 436.7004,90.593406 435.52423,87.220076 C 434.34806,83.846736 430.80342,85.070726 429.62725,81.697386 C 428.45108,78.324056 431.9986,77.108336 430.82243,73.734996 C 429.64626,70.361666 426.10162,71.585656 424.92545,68.212316 C 423.74928,64.838986 427.2968,63.623256 426.12063,60.249926 C 424.94446,56.876596 421.39652,58.091136 421.39652,58.091136 C 421.39652,58.091136 421.39973,58.090016 432.01934,54.387316 z"
             style="fill:#000000;fill-opacity:1;stroke:none"
             id="path3179" />
        </g>
        <g
           id="g2914"
           inkscape:export-filename="logo.png"
           inkscape:export-xdpi="57.857143"
           inkscape:export-ydpi="57.857143"
           transform="translate(0,-4.542845)">
          <g
             transform="matrix(0.25808,0,0,0.25808,151.288,84.00204)"
             id="g2175">
            <path
               style="fill:url(#pattern2096);stroke:none"
               d="M 400,-237.625 L 400,52.375 L 200,52.375 C 200,342.375 200,342.375 200,342.375 L 600,342.375 L 600,-237.625 L 400,-237.625 z"
               id="rect2100" />
            <path
               style="fill:url(#pattern2180);stroke:none"
               d="M 150,-259.99629 L 180.54053,-111.96219 L 376.75334,-150.69891 L 346.21281,-298.733 L 150,-259.99629 z"
               id="rect2141"
               sodipodi:nodetypes="ccccc" />
            <path
               style="fill:url(#pattern2171);stroke:none"
               d="M 184.33567,-90.879614 L 199.39961,52.38889 L 398.25249,30.998922 L 383.18856,-112.26958 L 184.33567,-90.879614 z"
               id="rect2168"
               sodipodi:nodetypes="ccccc" />
          </g>
          <path
             inkscape:export-ydpi="61.000000"
             inkscape:export-xdpi="61.000000"
             inkscape:export-filename="logo.png"
             id="path2910"
             d="M 313.03855,115.23539 C 303.62545,118.61199 306.90044,127.96596 301.62068,112.86218 C 301.62068,112.86218 282.73568,119.44676 282.73568,119.44676 C 288.01543,134.55054 284.72315,125.10804 275.26855,128.40454 C 275.26855,128.40454 291.72999,175.61705 291.72999,175.61705 C 300.94509,172.21494 297.8923,162.87805 303.14787,177.99027 L 322.03287,171.40569 C 316.7773,156.29347 320.08689,165.8245 329.5,162.4479 L 313.03855,115.23539 z M 299.46496,119.96806 C 299.31753,119.95189 295.93102,121.22273 297.10719,124.59606 C 298.28336,127.9694 301.81771,126.7159 302.99388,130.08924 C 304.17005,133.46257 300.63282,134.7078 301.80899,138.08114 C 302.98516,141.45447 306.51951,140.20098 307.69568,143.57431 C 308.87185,146.94764 305.33462,148.19287 306.51079,151.56621 C 307.68696,154.93955 311.22131,153.68604 312.39748,157.05938 C 313.57365,160.43272 310.03641,161.67794 311.21259,165.05128 C 312.38876,168.42461 315.9264,167.18056 315.9264,167.18056 L 305.30359,170.88439 C 305.30359,170.88439 308.84781,169.65921 307.67165,166.28589 C 306.49548,162.91256 302.95084,164.13654 301.77467,160.76321 C 300.59849,157.38987 304.14602,156.17415 302.96985,152.80082 C 301.79368,149.42748 298.24904,150.65147 297.07287,147.27813 C 295.8967,143.9048 299.44422,142.68908 298.26805,139.31574 C 297.09188,135.94241 293.54724,137.1664 292.37107,133.79306 C 291.1949,130.41973 294.74242,129.204 293.56625,125.83067 C 292.39008,122.45734 288.84214,123.67188 288.84214,123.67188 C 288.84214,123.67188 288.84535,123.67076 299.46496,119.96806 z"
             style="opacity:1;fill:#b2b2b2;fill-opacity:1;fill-rule:evenodd;stroke:#000000;stroke-width:1px;stroke-linecap:butt;stroke-linejoin:miter;marker-start:none;stroke-opacity:1" />
        </g>
      </g>
    </g>
    <use
       inkscape:export-filename="D:\temp\PosteRazor\source\posterazor\ui\OSXResources\icon_128_image.png"
       inkscape:export-ydpi="61.070000"
       inkscape:export-xdpi="61.070000"
       height="1052.3622"
       width="744.09448"
       transform="translate(290.29347,-325.07508)"
       id="use1325"
       xlink:href="#g2914"
       y="0"
       x="0" />
    <rect
       style="opacity:1;fill:#ffffff;fill-opacity:1"
       id="rect2514"
       width="660"
       height="180"
       x="0"
       y="0" />
    <g
       id="g2810"
       transform="translate(0,-20)"
       inkscape:export-filename="C:\ownprojects\posterazor\trunk\webpage\header.png"
       inkscape:export-xdpi="90"
       inkscape:export-ydpi="90">
      <rect
         y="20"
         x="0"
         height="200"
         width="655"
         id="rect2256"
         style="opacity:1;fill:url(#linearGradient3233);fill-opacity:1;fill-rule:evenodd;stroke:none;stroke-width:2;stroke-linecap:round;stroke-linejoin:round;stroke-miterlimit:4;stroke-dasharray:none;stroke-opacity:1" />
    </g>
    <use
       height="200"
       width="655"
       id="use2920"
       xlink:href="#g2910"
       y="0"
       x="0"
       transform="matrix(0.8849211,4.809402e-2,-4.809402e-2,0.8849211,-187.3197,316.98565)" />
  </g>
</svg>
